<svg width="218" height="204" viewBox="0 0 218 204" fill="none" xmlns="http://www.w3.org/2000/svg">
<ellipse cx="109" cy="101.733" rx="109" ry="101.733" fill="#171928"/>
<path d="M106.539 29.5588C107.128 29.2187 107.797 29.0397 108.477 29.0397C109.157 29.0397 109.825 29.2187 110.414 29.5588L168.063 62.8457C168.652 63.186 169.141 63.6756 169.482 64.2652C169.822 64.8547 170.001 65.5235 170 66.2041V132.771C170.001 133.452 169.822 134.121 169.482 134.71C169.141 135.3 168.652 135.789 168.063 136.13L110.414 169.404C109.825 169.744 109.157 169.923 108.477 169.923C107.797 169.923 107.128 169.744 106.539 169.404L48.8911 136.117C48.3017 135.777 47.8123 135.287 47.4722 134.697C47.132 134.108 46.9532 133.439 46.9536 132.758V66.2041C46.9532 65.5235 47.132 64.8547 47.4722 64.2652C47.8123 63.6756 48.3017 63.186 48.8911 62.8457L106.539 29.5653V29.5588Z" stroke="#B9B9B9" stroke-width="14" stroke-linecap="round" stroke-linejoin="round"/>
<path d="M140.77 118.86H76.1853L108.478 67.1924L140.77 118.86Z" stroke="#B9B9B9" stroke-width="14" stroke-linecap="round" stroke-linejoin="round"/>
<path d="M46.9536 63.963L108.309 67.1922M46.9536 63.963L76.0167 118.86M169.664 63.963L140.601 118.86M169.664 63.963L108.309 67.1922V28.4415M169.664 135.006L140.601 118.86M46.9536 135.006L76.0167 118.86M76.0167 118.86L108.309 170.527L140.601 118.86" stroke="#B9B9B9" stroke-width="14" stroke-linejoin="round"/>
</svg>
