<svg width="99" height="99" viewBox="0 0 99 99" fill="none" xmlns="http://www.w3.org/2000/svg">
<path d="M49.4587 8.25C26.6887 8.25 8.25 26.73 8.25 49.5C8.25 72.27 26.6887 90.75 49.4587 90.75C72.27 90.75 90.75 72.27 90.75 49.5C90.75 26.73 72.27 8.25 49.4587 8.25ZM49.5 82.5C31.2675 82.5 16.5 67.7325 16.5 49.5C16.5 31.2675 31.2675 16.5 49.5 16.5C67.7325 16.5 82.5 31.2675 82.5 49.5C82.5 67.7325 67.7325 82.5 49.5 82.5Z" fill="#B9B9B9"/>
<path d="M51.5625 28.875H45.375V53.625L67.0312 66.6187L70.125 61.545L51.5625 50.5312V28.875Z" fill="#B9B9B9"/>
</svg>
